# xmcd CD database file
#
# Track frame offsets:
#	150
#	17503
#	35872
#	55779
#	72814
#	95582
#	114201
#
# Disc length: 1912 seconds
#
# Revision: 1
# Processed by: cddbd v1.5.2PL0 Copyright (c) Steve Scherf et al.
# Submitted via: CDex 1.70beta2
#
DISCID=53077607
DTITLE=As Free Ass Free Jazz - As Free Ass Free Jazz
DYEAR=2014
DGENRE=Jazz
TTITLE0=Transformer
TTITLE1=A Fisè
TTITLE2=Blues
TTITLE3=Eight Black Man and Two Naked Women
TTITLE4=Dostojewski
TTITLE5=Morpheus
TTITLE6=Fäm Däm Bäm
EXTD=YEAR: 2014
EXTT0=
EXTT1=
EXTT2=
EXTT3=
EXTT4=
EXTT5=
EXTT6=
PLAYORDER=
